<?xml version="1.0" encoding="UTF-8"?>
<svg id="Layer_3" data-name="Layer 3" xmlns="http://www.w3.org/2000/svg" viewBox="0 0 500 500">
  <defs>
    <style>
      .cls-1 {
        fill: #fff;
      }
    </style>
  </defs>
  <polygon class="cls-1" points="213.32 258.01 212.97 257.81 184.79 241.54 181.18 239.46 170.3 233.17 158.26 254.02 164.82 257.81 156.08 257.81 142.63 257.81 148.18 248.2 160.21 227.35 167.8 214.21 177.89 220.03 188.77 226.32 215.19 180.55 218.12 175.48 212.17 175.45 203.65 175.42 190.23 175.36 137.29 175.14 128 191.23 120.41 204.37 108.37 225.22 89.56 257.81 63.81 302.4 116.76 302.62 130.17 302.68 144.65 302.74 149.45 302.76 193.7 302.94 206.02 281.6 218.06 260.75 213.32 258.01"/>
  <polygon class="cls-1" points="445.32 176.44 353.1 176.05 387.83 236.21 445.32 176.44"/>
  <polygon class="cls-1" points="352.85 201.27 338.26 175.99 337.26 175.98 311.21 175.87 284.56 175.76 276.19 190.26 267.52 175.69 267.17 175.69 222.92 175.5 217.64 184.65 192.38 228.4 225.64 247.61 240.14 222.5 245.3 231.18 259.38 219.37 248.98 237.37 238.72 255.16 237.19 257.81 231.13 268.3 219.09 289.14 211.08 303.02 231.5 303.1 243.36 303.15 263.78 303.24 270.75 291.17 275.78 282.45 286.31 300.15 288.2 303.34 291.86 303.36 323.13 303.49 340.88 303.56 334.19 291.99 305 241.43 294.27 250.43 302.24 236.64 302.99 235.33 311.17 221.16 317.04 231.33 345.36 280.38 358.79 303.64 412.09 303.87 378.58 245.83 352.85 201.27"/>
</svg>